<?xml version="1.0" encoding="utf-8"?>
<!-- Generator: Adobe Illustrator 24.3.0, SVG Export Plug-In . SVG Version: 6.00 Build 0)  -->
<svg version="1.1" id="Layer_1" xmlns="http://www.w3.org/2000/svg" xmlns:xlink="http://www.w3.org/1999/xlink" x="0px" y="0px"
	 viewBox="0 0 300 300" enable-background="new 0 0 300 300" xml:space="preserve">
<g>
	<g>
		<g>
			<path fill="#F4F4F4" d="M110.333,252.453h56.601c12.576-8.892,20.808-23.518,20.808-40.091v-39.225H89.525v39.225
				C89.525,228.935,97.76,243.561,110.333,252.453z"/>
		</g>
		<g>
			<path fill="#F9F9F9" d="M102.754,212.363v-39.225H89.525v39.225c0,16.572,8.235,31.199,20.808,40.091h13.228
				C110.989,243.561,102.754,228.935,102.754,212.363z"/>
		</g>
		<g>
			<path fill="#AA6148" d="M152.038,225.778c-9.933,9.937-23.687,12.297-30.712,5.273c-7.018-7.026-4.662-20.775,5.277-30.711
				c9.933-9.936,23.681-12.297,30.708-5.272C164.336,202.094,161.976,215.844,152.038,225.778z"/>
		</g>
		<g>
			<path fill="#BC715C" d="M131.669,204.99c8.569-8.569,19.96-11.486,27.443-7.627c-0.526-0.848-1.119-1.652-1.837-2.37
				c-7.028-7.024-20.775-4.664-30.709,5.272c-9.939,9.936-12.295,23.685-5.276,30.711c0.966,0.967,2.07,1.739,3.266,2.355
				C119.959,225.888,122.746,213.91,131.669,204.99z"/>
		</g>
		<g>
			<g>
				<path fill="#BC715C" d="M124.164,232.245c-2.288,0-4.175-1.828-4.246-4.141c-0.071-2.359,1.769-4.329,4.119-4.403l0.546-0.018
					c6.945-0.208,10.113-0.301,11.394-11.833c1.719-15.521,13.128-18.512,18.921-17.904c2.339,0.239,4.039,2.337,3.803,4.686
					c-0.237,2.334-2.297,4.035-4.624,3.821c-1.418-0.111-8.495-0.109-9.656,10.344c-2.096,18.906-12.207,19.207-19.588,19.43
					l-0.537,0.016C124.252,232.245,124.208,232.245,124.164,232.245z"/>
			</g>
		</g>
		<g>
			<path fill="#F4F4F4" d="M99.523,270.49h99.111c9.959,0,18.035-8.075,18.035-18.037H81.485
				C81.485,262.416,89.561,270.49,99.523,270.49z"/>
		</g>
		<g>
			<path fill="#F9F9F9" d="M99.302,252.453H81.485c0,9.962,8.076,18.037,18.038,18.037h17.817
				C107.378,270.49,99.302,262.416,99.302,252.453z"/>
		</g>
		<g>
			<path fill="#F4F4F4" d="M203.055,180.221h-15.313v8.774h15.313c3.523,0,6.408,2.782,6.573,6.264l-4.804,28.999
				c-0.041,0.236-0.062,0.477-0.062,0.716c0,3.628-2.953,6.58-6.579,6.58h-14.368c-1.323,3.099-2.938,6.04-4.842,8.774h19.21
				c8.335,0,15.139-6.678,15.348-14.963l4.819-29.072c0.038-0.238,0.059-0.477,0.059-0.717
				C218.409,187.108,211.52,180.221,203.055,180.221z"/>
		</g>
		<g>
			<path fill="#9AE8CE" d="M112.152,43.721c-30.23,0-54.741,24.51-54.741,54.74v57.49l20.415-14.879
				c9.39,7.577,21.319,12.13,34.326,12.13c30.233,0,54.741-24.507,54.741-54.741C166.893,68.231,142.385,43.721,112.152,43.721z"/>
		</g>
		<g>
			<path fill="#AEF4DB" d="M69.884,98.461c0-28.119,21.215-51.261,48.504-54.36c-2.049-0.233-4.125-0.381-6.236-0.381
				c-30.23,0-54.741,24.51-54.741,54.74v57.49l12.472-9.09V98.461z"/>
		</g>
		<g>
			<path fill="#F4F4F4" d="M187.742,28.603c-18.921,0-35.598,9.602-45.428,24.196c14.802,9.799,24.579,26.582,24.579,45.662
				c0,11.312-3.434,21.82-9.31,30.545c8.648,5.725,19.01,9.078,30.159,9.078c13.007,0,24.936-4.553,34.325-12.13l20.415,14.879
				v-57.49C242.482,53.113,217.972,28.603,187.742,28.603z"/>
		</g>
		<g>
			<rect x="81.485" y="95.553" fill="#F4F4F4" width="8.566" height="8.567"/>
		</g>
		<g>
			<rect x="107.868" y="95.553" fill="#F4F4F4" width="8.569" height="8.567"/>
		</g>
		<g>
			<rect x="134.351" y="95.553" fill="#F4F4F4" width="8.566" height="8.567"/>
		</g>
		<g>
			<rect x="183.407" y="80.435" fill="#9AE8CE" width="8.566" height="8.567"/>
		</g>
		<g>
			<rect x="209.89" y="80.435" fill="#9AE8CE" width="8.569" height="8.567"/>
		</g>
	</g>
	<g>
		<g>
			<path fill="#161616" d="M166.987,256.989h-56.601c-0.937,0-1.853-0.291-2.619-0.833c-14.228-10.063-22.723-26.434-22.723-43.793
				v-39.225c0-2.505,2.03-4.535,4.535-4.535h98.215c2.504,0,4.535,2.03,4.535,4.535v39.225c0,17.361-8.495,33.732-22.724,43.793
				C168.838,256.698,167.926,256.989,166.987,256.989z M111.867,247.918h53.641c11.141-8.417,17.752-21.604,17.752-35.555v-34.69
				H94.115v34.69C94.115,226.313,100.725,239.5,111.867,247.918z"/>
		</g>
		<g>
			<path fill="#161616" d="M198.688,275.025h-9.201c-2.504,0-4.535-2.03-4.535-4.535s2.031-4.535,4.535-4.535h9.201
				c5.852,0,10.848-3.745,12.717-8.966H86.857c1.868,5.221,6.864,8.966,12.719,8.966h68.988c2.504,0,4.535,2.03,4.535,4.535
				s-2.031,4.535-4.535,4.535H99.576c-12.447,0-22.574-10.126-22.574-22.572c0-2.505,2.03-4.535,4.535-4.535h135.185
				c2.504,0,4.535,2.03,4.535,4.535C221.258,264.899,211.133,275.025,198.688,275.025z"/>
		</g>
		<g>
			<path fill="#161616" d="M203.108,180.221h-15.313v8.774h15.313c3.522,0,6.407,2.782,6.573,6.264l-4.804,28.999
				c-0.041,0.236-0.062,0.477-0.062,0.716c0,3.628-2.952,6.58-6.578,6.58h-14.368c-1.323,3.099-2.938,6.04-4.843,8.774h19.211
				c8.335,0,15.139-6.678,15.348-14.963l4.819-29.072c0.038-0.238,0.059-0.477,0.059-0.717
				C218.462,187.108,211.573,180.221,203.108,180.221z"/>
		</g>
		<g>
			<path fill="#161616" d="M57.465,160.486c-0.703,0-1.407-0.162-2.057-0.493c-1.521-0.774-2.479-2.336-2.479-4.042v-57.49
				c0-13.615,4.518-26.434,13.063-37.074c1.569-1.95,4.428-2.262,6.376-0.695c1.953,1.568,2.265,4.423,0.695,6.377
				C65.825,76.08,62,86.935,62,98.461v48.572l13.209-9.627c1.655-1.208,3.921-1.152,5.519,0.136
				c9.019,7.278,19.904,11.124,31.478,11.124c27.683,0,50.205-22.522,50.205-50.205c0-27.683-22.522-50.205-50.205-50.205
				c-8.53,0-16.98,2.203-24.435,6.37c-2.185,1.22-4.949,0.44-6.173-1.746c-1.221-2.187-0.44-4.95,1.747-6.173
				c8.805-4.921,18.785-7.522,28.861-7.522c32.685,0,59.276,26.591,59.276,59.276c0,32.685-26.591,59.276-59.276,59.276
				c-12.304,0-24.381-3.889-34.379-11.015l-17.691,12.895C59.345,160.192,58.406,160.486,57.465,160.486z"/>
		</g>
		<g>
			<path fill="#161616" d="M242.536,145.368c-0.942,0-1.881-0.294-2.672-0.87l-17.69-12.895
				c-9.998,7.126-22.074,11.015-34.379,11.015c-11.651,0-22.946-3.4-32.663-9.831c-1.007-0.669-1.707-1.711-1.943-2.897
				c-0.236-1.186,0.009-2.417,0.685-3.419c5.584-8.293,8.536-17.979,8.536-28.011c0-16.879-8.43-32.535-22.549-41.88
				c-1.008-0.667-1.708-1.711-1.944-2.897c-0.236-1.186,0.012-2.417,0.687-3.419c11.051-16.404,29.44-26.198,49.191-26.198
				c32.684,0,59.276,26.591,59.276,59.276v57.49c0,1.707-0.957,3.269-2.48,4.042C243.944,145.206,243.238,145.368,242.536,145.368z
				 M163.898,127.485c7.323,3.979,15.499,6.063,23.896,6.063c11.575,0,22.458-3.846,31.476-11.124c1.6-1.29,3.865-1.342,5.522-0.136
				L238,131.916V83.343c0-27.683-22.523-50.205-50.205-50.205c-15.26,0-29.56,6.903-39.06,18.664
				c14.325,11.208,22.746,28.323,22.746,46.659C171.481,108.706,168.874,118.648,163.898,127.485z"/>
		</g>
		<g>
			<rect x="81.538" y="95.553" fill="#161616" width="8.567" height="8.567"/>
		</g>
		<g>
			<rect x="107.921" y="95.553" fill="#161616" width="8.567" height="8.567"/>
		</g>
		<g>
			<rect x="134.404" y="95.553" fill="#161616" width="8.567" height="8.567"/>
		</g>
		<g>
			<rect x="183.46" y="80.435" fill="#161616" width="8.566" height="8.567"/>
		</g>
		<g>
			<rect x="209.943" y="80.435" fill="#161616" width="8.569" height="8.567"/>
		</g>
		<g>
			<path fill="#161616" d="M131.915,239.771c-5.454,0-10.241-1.846-13.774-5.377c-8.929-8.938-6.611-25.244,5.275-37.128
				c11.885-11.885,28.191-14.195,37.123-5.272c4.468,4.47,6.239,10.947,4.987,18.24c-1.152,6.716-4.795,13.422-10.261,18.884l0,0
				l0,0c0,0,0,0,0,0.002c-5.461,5.462-12.168,9.106-18.886,10.259C134.852,239.641,133.36,239.771,131.915,239.771z M146.73,195.693
				c-5.312,0-11.749,2.838-16.901,7.989c-8.014,8.012-10.429,19.14-5.274,24.299c2.325,2.322,5.981,3.195,10.29,2.458
				c4.885-0.839,9.859-3.585,14.005-7.733c0.001,0,0.001,0,0.001-0.001c4.149-4.147,6.898-9.121,7.736-14.005
				c0.738-4.308-0.136-7.962-2.463-10.29C152.283,196.569,149.68,195.693,146.73,195.693z"/>
		</g>
		<g>
			<path fill="#161616" d="M123.278,233.054c-2.439,0-4.454-1.938-4.531-4.395c-0.077-2.504,1.89-4.596,4.394-4.674l1.329-0.034
				c7.147-0.173,10.106-0.245,11.412-11.965c0.743-6.66,3.245-11.641,7.441-14.809c5.752-4.343,12.317-3.399,13.041-3.273
				c2.471,0.416,4.137,2.755,3.723,5.225c-0.413,2.457-2.746,4.11-5.179,3.728c-0.165-0.018-3.546-0.433-6.188,1.612
				c-2.087,1.615-3.374,4.482-3.824,8.522c-2.184,19.593-12.602,19.844-20.208,20.028l-1.267,0.034
				C123.374,233.054,123.325,233.054,123.278,233.054z"/>
		</g>
	</g>
</g>
</svg>
